<?xml version="1.0" encoding="UTF-8"?>
<svg xmlns="http://www.w3.org/2000/svg" xmlns:xlink="http://www.w3.org/1999/xlink" viewBox="0 0 208.32 112.18">
  <defs>
    <style>
      .cls-1 {
        fill: #bc0000;
      }

      .cls-2, .cls-3, .cls-4 {
        fill: #0d1e1f;
      }

      .cls-2, .cls-5 {
        opacity: .5;
      }

      .cls-6 {
        isolation: isolate;
      }

      .cls-3, .cls-7 {
        mix-blend-mode: overlay;
        opacity: .2;
      }

      .cls-5 {
        fill: url(#linear-gradient-2);
      }

      .cls-8 {
        fill: #fff;
      }

      .cls-9 {
        opacity: .39;
      }

      .cls-7 {
        fill: url(#linear-gradient);
      }
    </style>
    <linearGradient id="linear-gradient" x1="69.42" y1="52.17" x2="208.32" y2="52.17" gradientUnits="userSpaceOnUse">
      <stop offset="0" stop-color="#fff"/>
      <stop offset=".25" stop-color="#fff" stop-opacity=".7"/>
      <stop offset=".52" stop-color="#fff" stop-opacity=".4"/>
      <stop offset=".74" stop-color="#fff" stop-opacity=".19"/>
      <stop offset=".91" stop-color="#fff" stop-opacity=".05"/>
      <stop offset="1" stop-color="#fff" stop-opacity="0"/>
    </linearGradient>
    <linearGradient id="linear-gradient-2" x1="15.2" xlink:href="#linear-gradient"/>
  </defs>
  <g class="cls-6">
    <g id="Layer_2" data-name="Layer 2">
      <g id="Layer_1-2" data-name="Layer 1">
        <g>
          <g class="cls-9">
            <g>
              <polygon class="cls-4" points="54.22 7.83 0 112.18 138.9 112.18 193.12 7.83 54.22 7.83"/>
              <polygon class="cls-3" points="54.22 7.83 138.9 112.18 193.12 7.83 54.22 7.83"/>
              <polygon class="cls-2" points="193.12 7.83 138.9 112.18 0 112.18 193.12 7.83"/>
            </g>
          </g>
          <g>
            <polygon class="cls-1" points="69.42 0 15.2 104.35 154.09 104.35 208.32 0 69.42 0"/>
            <polygon class="cls-7" points="69.42 0 154.09 104.35 208.32 0 69.42 0"/>
            <polygon class="cls-5" points="208.32 0 154.09 104.35 15.2 104.35 208.32 0"/>
          </g>
          <g>
            <rect class="cls-8" x="69.42" y="43.32" width="16.69" height="40.78"/>
            <path class="cls-8" d="M141.32,51.51c1.02-.05,2-.48,2.71-1.22,1.1-1.15,1.77-2.72,1.74-4.45-.06-3.43-2.96-6.13-6.39-6.13h-22.47c2.91-6.54,5.56-16.6,2.12-26.59-.95-3.18-3.61-3.29-5.46-3.29s-5.69,1.77-5.48,5.75c.22,3.98,1.59,10.28-1.67,13.83-2.99,3.25-8.07,10.4-15.17,13.24-1.21.48-1.99,1.68-1.99,2.98v28.05c0,5,4.05,9.06,9.06,9.06h36.56c2.58,0,4.81-1.97,4.97-4.54.08-1.19-.28-2.29-.92-3.17-.7-.96-1.83-1.52-3.02-1.59l-7.95-.41h0l10.54-.55c1.48-.08,2.84-.94,3.46-2.29.28-.61.44-1.3.44-2.01s-.16-1.4-.44-2.01c-.62-1.35-1.97-2.22-3.46-2.29l-10.54-.55h0s11.7-.61,11.7-.61c1.16-.06,2.25-.6,2.97-1.52.74-.94,1.18-2.13,1.18-3.42s-.44-2.48-1.18-3.42c-.72-.91-1.81-1.46-2.97-1.52l-11.7-.61h0s13.38-.7,13.38-.7Z"/>
          </g>
        </g>
      </g>
    </g>
  </g>
</svg>